<svg xmlns="http://www.w3.org/2000/svg" xmlns:xlink="http://www.w3.org/1999/xlink" width="500" zoomAndPan="magnify" viewBox="0 0 375 374.999991" height="500" preserveAspectRatio="xMidYMid meet" version="1.0"><defs><g/><clipPath id="4243d27604"><path d="M 75 155 L 143 155 L 143 222.738281 L 75 222.738281 Z M 75 155 " clip-rule="nonzero"/></clipPath></defs><g fill="#ffffff" fill-opacity="1"><g transform="translate(42.739977, 214.082828)"><g><path d="M 3.125 -32 C 5.8125 -32 7.75 -32.769531 8.9375 -34.3125 C 10.125 -35.863281 10.71875 -37.890625 10.71875 -40.390625 L 10.71875 -53.890625 C 10.71875 -56.453125 11.046875 -58.726562 11.703125 -60.71875 C 12.359375 -62.71875 13.445312 -64.398438 14.96875 -65.765625 C 16.488281 -67.140625 18.515625 -68.1875 21.046875 -68.90625 C 23.578125 -69.625 26.722656 -69.984375 30.484375 -69.984375 L 32.265625 -69.984375 L 32.265625 -59.34375 L 30.03125 -59.34375 C 27.351562 -59.34375 25.550781 -58.742188 24.625 -57.546875 C 23.695312 -56.359375 23.234375 -54.515625 23.234375 -52.015625 L 23.234375 -40.125 C 23.234375 -37.03125 22.816406 -34.410156 21.984375 -32.265625 C 21.148438 -30.117188 19.484375 -28.269531 16.984375 -26.71875 C 19.484375 -25.175781 21.148438 -23.332031 21.984375 -21.1875 C 22.816406 -19.039062 23.234375 -16.414062 23.234375 -13.3125 L 23.234375 -1.4375 C 23.234375 1.070312 23.695312 2.921875 24.625 4.109375 C 25.550781 5.304688 27.351562 5.90625 30.03125 5.90625 L 32.265625 5.90625 L 32.265625 16.53125 L 30.484375 16.53125 C 26.722656 16.53125 23.578125 16.171875 21.046875 15.453125 C 18.515625 14.742188 16.488281 13.703125 14.96875 12.328125 C 13.445312 10.960938 12.359375 9.28125 11.703125 7.28125 C 11.046875 5.289062 10.71875 3.015625 10.71875 0.453125 L 10.71875 -13.046875 C 10.71875 -15.546875 10.125 -17.570312 8.9375 -19.125 C 7.75 -20.675781 5.8125 -21.453125 3.125 -21.453125 Z M 3.125 -32 "/></g></g></g><g fill="#ffffff" fill-opacity="1"><g transform="translate(75.892318, 214.082828)"><g/></g></g><g fill="#ffffff" fill-opacity="1"><g transform="translate(97.340467, 214.082828)"><g/></g></g><g fill="#ffffff" fill-opacity="1"><g transform="translate(118.788616, 214.082828)"><g/></g></g><g fill="#ffffff" fill-opacity="1"><g transform="translate(140.228252, 214.082828)"><g><path d="M 30.03125 -21.453125 C 27.351562 -21.453125 25.414062 -20.675781 24.21875 -19.125 C 23.03125 -17.570312 22.4375 -15.546875 22.4375 -13.046875 L 22.4375 0.453125 C 22.4375 3.015625 22.109375 5.289062 21.453125 7.28125 C 20.796875 9.28125 19.707031 10.960938 18.1875 12.328125 C 16.664062 13.703125 14.640625 14.742188 12.109375 15.453125 C 9.578125 16.171875 6.4375 16.53125 2.6875 16.53125 L 0.890625 16.53125 L 0.890625 5.90625 L 3.125 5.90625 C 5.8125 5.90625 7.613281 5.304688 8.53125 4.109375 C 9.457031 2.921875 9.921875 1.070312 9.921875 -1.4375 L 9.921875 -13.3125 C 9.921875 -16.414062 10.335938 -19.039062 11.171875 -21.1875 C 12.003906 -23.332031 13.671875 -25.175781 16.171875 -26.71875 C 13.671875 -28.269531 12.003906 -30.117188 11.171875 -32.265625 C 10.335938 -34.410156 9.921875 -37.03125 9.921875 -40.125 L 9.921875 -52.015625 C 9.921875 -54.515625 9.457031 -56.359375 8.53125 -57.546875 C 7.613281 -58.742188 5.8125 -59.34375 3.125 -59.34375 L 0.890625 -59.34375 L 0.890625 -69.984375 L 2.6875 -69.984375 C 6.4375 -69.984375 9.578125 -69.625 12.109375 -68.90625 C 14.640625 -68.1875 16.664062 -67.140625 18.1875 -65.765625 C 19.707031 -64.398438 20.796875 -62.71875 21.453125 -60.71875 C 22.109375 -58.726562 22.4375 -56.453125 22.4375 -53.890625 L 22.4375 -40.390625 C 22.4375 -37.890625 23.03125 -35.863281 24.21875 -34.3125 C 25.414062 -32.769531 27.351562 -32 30.03125 -32 Z M 30.03125 -21.453125 "/></g></g></g><g clip-path="url(#4243d27604)"><path fill="#1ed891" d="M 131.101562 155.90625 C 117.726562 156.285156 115.902344 174.832031 128.789062 177.902344 C 127.777344 190.46875 117.238281 200.386719 104.417969 200.386719 L 88.851562 200.386719 L 88.851562 177.925781 C 93.921875 176.890625 97.746094 172.398438 97.746094 167.027344 C 97.132812 152.273438 76.121094 152.28125 75.507812 167.027344 C 75.507812 172.398438 79.335938 176.890625 84.402344 177.925781 L 84.402344 200.609375 C 71.441406 203.601562 73.207031 222.25 86.628906 222.628906 C 95.667969 222.761719 101.039062 211.898438 95.5 204.835938 L 104.417969 204.835938 C 119.683594 204.835938 132.210938 192.9375 133.246094 177.9375 C 146.289062 175.023438 144.566406 156.285156 131.101562 155.90625 Z M 131.101562 155.90625 " fill-opacity="1" fill-rule="nonzero"/></g><g fill="#1ed891" fill-opacity="1"><g transform="translate(187.499992, 201.749987)"><g><path d="M 15.84375 0.5625 C 11.332031 0.5625 7.894531 -0.6875 5.53125 -3.1875 C 3.175781 -5.695312 2 -9.257812 2 -13.875 C 2 -16.164062 2.359375 -18.210938 3.078125 -20.015625 C 3.796875 -21.816406 4.78125 -23.335938 6.03125 -24.578125 C 7.289062 -25.816406 8.785156 -26.753906 10.515625 -27.390625 C 12.253906 -28.035156 14.132812 -28.359375 16.15625 -28.359375 C 17.332031 -28.359375 18.398438 -28.269531 19.359375 -28.09375 C 20.316406 -27.925781 21.15625 -27.726562 21.875 -27.5 C 22.59375 -27.269531 23.191406 -27.035156 23.671875 -26.796875 C 24.160156 -26.554688 24.507812 -26.367188 24.71875 -26.234375 L 22.921875 -21.203125 C 22.066406 -21.648438 21.070312 -22.035156 19.9375 -22.359375 C 18.800781 -22.679688 17.515625 -22.84375 16.078125 -22.84375 C 15.117188 -22.84375 14.175781 -22.679688 13.25 -22.359375 C 12.332031 -22.035156 11.519531 -21.519531 10.8125 -20.8125 C 10.113281 -20.113281 9.550781 -19.203125 9.125 -18.078125 C 8.695312 -16.960938 8.484375 -15.601562 8.484375 -14 C 8.484375 -12.71875 8.617188 -11.523438 8.890625 -10.421875 C 9.171875 -9.316406 9.625 -8.363281 10.25 -7.5625 C 10.882812 -6.757812 11.707031 -6.125 12.71875 -5.65625 C 13.726562 -5.1875 14.957031 -4.953125 16.40625 -4.953125 C 17.3125 -4.953125 18.125 -5.003906 18.84375 -5.109375 C 19.5625 -5.222656 20.195312 -5.351562 20.75 -5.5 C 21.3125 -5.644531 21.804688 -5.8125 22.234375 -6 C 22.660156 -6.1875 23.050781 -6.359375 23.40625 -6.515625 L 25.125 -1.515625 C 24.238281 -0.984375 22.992188 -0.503906 21.390625 -0.078125 C 19.796875 0.347656 17.945312 0.5625 15.84375 0.5625 Z M 15.84375 0.5625 "/></g></g></g><g fill="#1ed891" fill-opacity="1"><g transform="translate(213.417413, 201.749987)"><g><path d="M 21.796875 -24.765625 C 22.117188 -23.671875 22.472656 -22.4375 22.859375 -21.0625 C 23.242188 -19.6875 23.65625 -18.265625 24.09375 -16.796875 C 24.539062 -15.328125 24.988281 -13.859375 25.4375 -12.390625 C 25.894531 -10.929688 26.335938 -9.570312 26.765625 -8.3125 C 27.109375 -9.675781 27.457031 -11.15625 27.8125 -12.75 C 28.175781 -14.351562 28.515625 -16.007812 28.828125 -17.71875 C 29.148438 -19.425781 29.460938 -21.125 29.765625 -22.8125 C 30.078125 -24.507812 30.367188 -26.144531 30.640625 -27.71875 L 37.125 -27.71875 C 36.1875 -23.082031 35.109375 -18.375 33.890625 -13.59375 C 32.679688 -8.820312 31.367188 -4.289062 29.953125 0 L 24.234375 0 C 23.304688 -2.5625 22.398438 -5.25 21.515625 -8.0625 C 20.640625 -10.875 19.773438 -13.691406 18.921875 -16.515625 C 18.066406 -13.691406 17.210938 -10.875 16.359375 -8.0625 C 15.503906 -5.25 14.613281 -2.5625 13.6875 0 L 7.953125 0 C 6.546875 -4.289062 5.234375 -8.820312 4.015625 -13.59375 C 2.804688 -18.375 1.734375 -23.082031 0.796875 -27.71875 L 7.5625 -27.71875 C 7.820312 -26.144531 8.113281 -24.507812 8.4375 -22.8125 C 8.757812 -21.125 9.09375 -19.425781 9.4375 -17.71875 C 9.78125 -16.007812 10.132812 -14.351562 10.5 -12.75 C 10.863281 -11.15625 11.226562 -9.675781 11.59375 -8.3125 C 12.070312 -9.625 12.539062 -11.015625 13 -12.484375 C 13.457031 -13.953125 13.894531 -15.414062 14.3125 -16.875 C 14.738281 -18.34375 15.132812 -19.753906 15.5 -21.109375 C 15.863281 -22.472656 16.191406 -23.691406 16.484375 -24.765625 Z M 21.796875 -24.765625 "/></g></g></g><g fill="#ffffff" fill-opacity="1"><g transform="translate(251.332019, 201.749987)"><g><path d="M 10.765625 -4.765625 C 11.640625 -4.765625 12.363281 -4.835938 12.9375 -4.984375 C 13.507812 -5.128906 13.96875 -5.328125 14.3125 -5.578125 C 14.664062 -5.828125 14.90625 -6.125 15.03125 -6.46875 C 15.164062 -6.820312 15.234375 -7.210938 15.234375 -7.640625 C 15.234375 -8.546875 14.804688 -9.296875 13.953125 -9.890625 C 13.109375 -10.492188 11.644531 -11.144531 9.5625 -11.84375 C 8.65625 -12.15625 7.75 -12.519531 6.84375 -12.9375 C 5.9375 -13.351562 5.117188 -13.875 4.390625 -14.5 C 3.671875 -15.125 3.082031 -15.882812 2.625 -16.78125 C 2.175781 -17.675781 1.953125 -18.765625 1.953125 -20.046875 C 1.953125 -21.316406 2.191406 -22.46875 2.671875 -23.5 C 3.160156 -24.53125 3.84375 -25.40625 4.71875 -26.125 C 5.601562 -26.84375 6.671875 -27.394531 7.921875 -27.78125 C 9.171875 -28.164062 10.582031 -28.359375 12.15625 -28.359375 C 14.019531 -28.359375 15.632812 -28.15625 17 -27.75 C 18.363281 -27.351562 19.484375 -26.914062 20.359375 -26.4375 L 18.5625 -21.515625 C 17.789062 -21.921875 16.929688 -22.273438 15.984375 -22.578125 C 15.035156 -22.890625 13.894531 -23.046875 12.5625 -23.046875 C 11.0625 -23.046875 9.984375 -22.835938 9.328125 -22.421875 C 8.679688 -22.003906 8.359375 -21.367188 8.359375 -20.515625 C 8.359375 -20.015625 8.476562 -19.585938 8.71875 -19.234375 C 8.957031 -18.890625 9.296875 -18.578125 9.734375 -18.296875 C 10.179688 -18.015625 10.691406 -17.757812 11.265625 -17.53125 C 11.835938 -17.3125 12.46875 -17.082031 13.15625 -16.84375 C 14.59375 -16.3125 15.84375 -15.785156 16.90625 -15.265625 C 17.976562 -14.742188 18.867188 -14.132812 19.578125 -13.4375 C 20.285156 -12.75 20.8125 -11.9375 21.15625 -11 C 21.507812 -10.0625 21.6875 -8.925781 21.6875 -7.59375 C 21.6875 -5.007812 20.773438 -3.003906 18.953125 -1.578125 C 17.140625 -0.148438 14.410156 0.5625 10.765625 0.5625 C 9.535156 0.5625 8.425781 0.488281 7.4375 0.34375 C 6.445312 0.195312 5.570312 0.0195312 4.8125 -0.1875 C 4.0625 -0.40625 3.410156 -0.632812 2.859375 -0.875 C 2.316406 -1.113281 1.859375 -1.34375 1.484375 -1.5625 L 3.234375 -6.515625 C 4.066406 -6.066406 5.085938 -5.660156 6.296875 -5.296875 C 7.515625 -4.941406 9.003906 -4.765625 10.765625 -4.765625 Z M 10.765625 -4.765625 "/></g></g></g><g fill="#ffffff" fill-opacity="1"><g transform="translate(274.609701, 201.749987)"><g><path d="M 3.203125 0 L 3.203125 -27.71875 L 21.921875 -27.71875 L 21.921875 -22.484375 L 9.4375 -22.484375 L 9.4375 -17.046875 L 20.515625 -17.046875 L 20.515625 -11.921875 L 9.4375 -11.921875 L 9.4375 -5.234375 L 22.84375 -5.234375 L 22.84375 0 Z M 3.203125 0 "/></g></g></g></svg>