<svg xmlns="http://www.w3.org/2000/svg" xmlns:xlink="http://www.w3.org/1999/xlink" width="500" zoomAndPan="magnify" viewBox="0 0 375 374.999991" height="500" preserveAspectRatio="xMidYMid meet" version="1.0"><defs><g/><clipPath id="fc3586712f"><path d="M 130 144 L 246 144 L 246 259.246094 L 130 259.246094 Z M 130 144 " clip-rule="nonzero"/></clipPath></defs><g fill="#000000" fill-opacity="1"><g transform="translate(74.811495, 244.421045)"><g><path d="M 5.390625 -55.1875 C 10.015625 -55.1875 13.351562 -56.519531 15.40625 -59.1875 C 17.46875 -61.863281 18.5 -65.363281 18.5 -69.6875 L 18.5 -92.96875 C 18.5 -97.382812 19.0625 -101.3125 20.1875 -104.75 C 21.320312 -108.195312 23.195312 -111.101562 25.8125 -113.46875 C 28.4375 -115.832031 31.929688 -117.628906 36.296875 -118.859375 C 40.671875 -120.097656 46.097656 -120.71875 52.578125 -120.71875 L 55.65625 -120.71875 L 55.65625 -102.375 L 51.796875 -102.375 C 47.171875 -102.375 44.0625 -101.34375 42.46875 -99.28125 C 40.875 -97.226562 40.078125 -94.046875 40.078125 -89.734375 L 40.078125 -69.21875 C 40.078125 -63.875 39.359375 -59.351562 37.921875 -55.65625 C 36.484375 -51.957031 33.609375 -48.769531 29.296875 -46.09375 C 33.609375 -43.425781 36.484375 -40.238281 37.921875 -36.53125 C 39.359375 -32.832031 40.078125 -28.3125 40.078125 -22.96875 L 40.078125 -2.46875 C 40.078125 1.851562 40.875 5.039062 42.46875 7.09375 C 44.0625 9.144531 47.171875 10.171875 51.796875 10.171875 L 55.65625 10.171875 L 55.65625 28.515625 L 52.578125 28.515625 C 46.097656 28.515625 40.671875 27.898438 36.296875 26.671875 C 31.929688 25.441406 28.4375 23.644531 25.8125 21.28125 C 23.195312 18.914062 21.320312 16.007812 20.1875 12.5625 C 19.0625 9.125 18.5 5.191406 18.5 0.765625 L 18.5 -22.515625 C 18.5 -26.828125 17.46875 -30.316406 15.40625 -32.984375 C 13.351562 -35.660156 10.015625 -37 5.390625 -37 Z M 5.390625 -55.1875 "/></g></g></g><g fill="#000000" fill-opacity="1"><g transform="translate(131.995328, 244.421045)"><g/></g></g><g fill="#000000" fill-opacity="1"><g transform="translate(168.990826, 244.421045)"><g/></g></g><g fill="#000000" fill-opacity="1"><g transform="translate(205.986324, 244.421045)"><g/></g></g><g fill="#000000" fill-opacity="1"><g transform="translate(242.967136, 244.421045)"><g><path d="M 51.796875 -37 C 47.171875 -37 43.832031 -35.660156 41.78125 -32.984375 C 39.726562 -30.316406 38.703125 -26.828125 38.703125 -22.515625 L 38.703125 0.765625 C 38.703125 5.191406 38.132812 9.125 37 12.5625 C 35.875 16.007812 34 18.914062 31.375 21.28125 C 28.75 23.644531 25.253906 25.441406 20.890625 26.671875 C 16.523438 27.898438 11.101562 28.515625 4.625 28.515625 L 1.546875 28.515625 L 1.546875 10.171875 L 5.390625 10.171875 C 10.015625 10.171875 13.125 9.144531 14.71875 7.09375 C 16.3125 5.039062 17.109375 1.851562 17.109375 -2.46875 L 17.109375 -22.96875 C 17.109375 -28.3125 17.828125 -32.832031 19.265625 -36.53125 C 20.710938 -40.238281 23.59375 -43.425781 27.90625 -46.09375 C 23.59375 -48.769531 20.710938 -51.957031 19.265625 -55.65625 C 17.828125 -59.351562 17.109375 -63.875 17.109375 -69.21875 L 17.109375 -89.734375 C 17.109375 -94.046875 16.3125 -97.226562 14.71875 -99.28125 C 13.125 -101.34375 10.015625 -102.375 5.390625 -102.375 L 1.546875 -102.375 L 1.546875 -120.71875 L 4.625 -120.71875 C 11.101562 -120.71875 16.523438 -120.097656 20.890625 -118.859375 C 25.253906 -117.628906 28.75 -115.832031 31.375 -113.46875 C 34 -111.101562 35.875 -108.195312 37 -104.75 C 38.132812 -101.3125 38.703125 -97.382812 38.703125 -92.96875 L 38.703125 -69.6875 C 38.703125 -65.363281 39.726562 -61.863281 41.78125 -59.1875 C 43.832031 -56.519531 47.171875 -55.1875 51.796875 -55.1875 Z M 51.796875 -37 "/></g></g></g><g clip-path="url(#fc3586712f)"><path fill="#1ed891" d="M 226.242188 144.070312 C 203.101562 144.722656 199.945312 176.6875 222.242188 181.976562 C 220.492188 203.632812 202.253906 220.726562 180.070312 220.726562 L 153.136719 220.726562 L 153.136719 182.015625 C 161.910156 180.234375 168.527344 172.492188 168.527344 163.234375 C 167.46875 137.804688 131.109375 137.824219 130.050781 163.234375 C 130.050781 172.492188 136.667969 180.234375 145.441406 182.015625 L 145.441406 221.109375 C 123.011719 226.265625 126.070312 258.402344 149.289062 259.054688 C 164.929688 259.285156 174.222656 240.5625 164.640625 228.394531 L 180.070312 228.394531 C 206.484375 228.394531 228.167969 207.886719 229.957031 182.035156 C 252.523438 177.015625 249.542969 144.722656 226.242188 144.070312 Z M 226.242188 144.070312 " fill-opacity="1" fill-rule="nonzero"/></g></svg>