<svg xmlns="http://www.w3.org/2000/svg" xmlns:xlink="http://www.w3.org/1999/xlink" width="500" zoomAndPan="magnify" viewBox="0 0 375 140.249994" height="187" preserveAspectRatio="xMidYMid meet" version="1.0"><defs><clipPath id="53a771a452"><path d="M 52 25 L 148 25 L 148 121.5625 L 52 121.5625 Z M 52 25 " clip-rule="nonzero"/></clipPath></defs><path fill="#000000" d="M 9.601562 63.167969 C 13.460938 63.167969 16.242188 62.0625 17.949219 59.847656 C 19.652344 57.617188 20.507812 54.707031 20.507812 51.117188 L 20.507812 31.726562 C 20.507812 28.046875 20.976562 24.78125 21.921875 21.917969 C 22.863281 19.046875 24.421875 16.632812 26.609375 14.667969 C 28.792969 12.695312 31.707031 11.191406 35.339844 10.160156 C 38.976562 9.125 43.492188 8.609375 48.898438 8.609375 L 51.453125 8.609375 L 51.453125 23.894531 L 48.246094 23.894531 C 44.398438 23.894531 41.808594 24.757812 40.480469 26.472656 C 39.144531 28.179688 38.484375 30.828125 38.484375 34.417969 L 38.484375 51.496094 C 38.484375 55.941406 37.882812 59.707031 36.6875 62.785156 C 35.488281 65.871094 33.097656 68.527344 29.507812 70.753906 C 33.097656 72.96875 35.488281 75.617188 36.6875 78.699219 C 37.882812 81.785156 38.484375 85.554688 38.484375 90.007812 L 38.484375 107.066406 C 38.484375 110.667969 39.144531 113.328125 40.480469 115.03125 C 41.808594 116.75 44.398438 117.613281 48.246094 117.613281 L 51.453125 117.613281 L 51.453125 132.875 L 48.898438 132.875 C 43.492188 132.875 38.976562 132.359375 35.339844 131.324219 C 31.707031 130.304688 28.792969 128.8125 26.609375 126.835938 C 24.421875 124.875 22.863281 122.460938 21.921875 119.589844 C 20.976562 116.726562 20.507812 113.460938 20.507812 109.78125 L 20.507812 90.390625 C 20.507812 86.800781 19.652344 83.894531 17.949219 81.660156 C 16.242188 79.433594 13.460938 78.316406 9.601562 78.316406 Z M 9.601562 63.167969 " fill-opacity="1" fill-rule="nonzero"/><path fill="#000000" d="M 188.269531 78.316406 C 184.421875 78.316406 181.636719 79.433594 179.921875 81.660156 C 178.214844 83.894531 177.363281 86.800781 177.363281 90.390625 L 177.363281 109.78125 C 177.363281 113.460938 176.890625 116.726562 175.949219 119.589844 C 175.007812 122.460938 173.441406 124.875 171.257812 126.835938 C 169.070312 128.8125 166.164062 130.304688 162.527344 131.324219 C 158.890625 132.359375 154.382812 132.875 148.996094 132.875 L 146.414062 132.875 L 146.414062 117.613281 L 149.625 117.613281 C 153.484375 117.613281 156.070312 116.75 157.386719 115.03125 C 158.71875 113.328125 159.386719 110.667969 159.386719 107.066406 L 159.386719 90.007812 C 159.386719 85.554688 159.980469 81.785156 161.179688 78.699219 C 162.375 75.617188 164.773438 72.96875 168.363281 70.753906 C 164.773438 68.527344 162.375 65.871094 161.179688 62.785156 C 159.980469 59.707031 159.386719 55.941406 159.386719 51.496094 L 159.386719 34.417969 C 159.386719 30.828125 158.71875 28.179688 157.386719 26.472656 C 156.070312 24.757812 153.484375 23.894531 149.625 23.894531 L 146.414062 23.894531 L 146.414062 8.609375 L 148.996094 8.609375 C 154.382812 8.609375 158.890625 9.125 162.527344 10.160156 C 166.164062 11.191406 169.070312 12.695312 171.257812 14.667969 C 173.441406 16.632812 175.007812 19.046875 175.949219 21.917969 C 176.890625 24.78125 177.363281 28.046875 177.363281 31.726562 L 177.363281 51.117188 C 177.363281 54.707031 178.214844 57.617188 179.921875 59.847656 C 181.636719 62.0625 184.421875 63.167969 188.269531 63.167969 Z M 188.269531 78.316406 " fill-opacity="1" fill-rule="nonzero"/><g clip-path="url(#53a771a452)"><path fill="#1ed891" d="M 132.027344 25.570312 C 112.816406 26.113281 110.195312 52.753906 128.707031 57.164062 C 127.253906 75.210938 112.113281 89.457031 93.699219 89.457031 L 71.34375 89.457031 L 71.34375 57.195312 C 78.625 55.710938 84.117188 49.257812 84.117188 41.542969 C 83.238281 20.351562 53.058594 20.363281 52.175781 41.542969 C 52.175781 49.257812 57.675781 55.710938 64.953125 57.195312 L 64.953125 89.777344 C 46.335938 94.074219 48.871094 120.859375 68.148438 121.40625 C 81.132812 121.59375 88.847656 105.992188 80.890625 95.847656 L 93.699219 95.847656 C 115.625 95.847656 133.621094 78.757812 135.105469 57.214844 C 153.839844 53.027344 151.367188 26.113281 132.027344 25.570312 Z M 132.027344 25.570312 " fill-opacity="1" fill-rule="nonzero"/></g><path fill="#1ed891" d="M 235.789062 92.222656 C 229.308594 92.222656 224.371094 90.429688 220.976562 86.835938 C 217.59375 83.234375 215.90625 78.117188 215.90625 71.488281 C 215.90625 68.199219 216.421875 65.257812 217.453125 62.667969 C 218.484375 60.082031 219.898438 57.898438 221.695312 56.113281 C 223.503906 54.335938 225.652344 52.988281 228.136719 52.074219 C 230.632812 51.148438 233.332031 50.683594 236.238281 50.683594 C 237.925781 50.683594 239.457031 50.8125 240.839844 51.0625 C 242.214844 51.304688 243.417969 51.59375 244.453125 51.917969 C 245.484375 52.25 246.34375 52.585938 247.03125 52.925781 C 247.734375 53.273438 248.234375 53.542969 248.535156 53.734375 L 245.957031 60.960938 C 244.726562 60.320312 243.296875 59.765625 241.667969 59.300781 C 240.035156 58.839844 238.191406 58.605469 236.125 58.605469 C 234.746094 58.605469 233.394531 58.839844 232.0625 59.300781 C 230.746094 59.765625 229.578125 60.507812 228.5625 61.523438 C 227.558594 62.527344 226.75 63.835938 226.140625 65.449219 C 225.523438 67.054688 225.21875 69.007812 225.21875 71.308594 C 225.21875 73.148438 225.410156 74.863281 225.800781 76.445312 C 226.207031 78.035156 226.855469 79.402344 227.753906 80.554688 C 228.664062 81.710938 229.847656 82.617188 231.300781 83.292969 C 232.75 83.964844 234.515625 84.300781 236.597656 84.300781 C 237.898438 84.300781 239.066406 84.230469 240.097656 84.078125 C 241.128906 83.914062 242.039062 83.730469 242.835938 83.515625 C 243.644531 83.308594 244.351562 83.066406 244.96875 82.796875 C 245.578125 82.527344 246.140625 82.28125 246.652344 82.058594 L 249.121094 89.238281 C 247.847656 90.003906 246.058594 90.691406 243.757812 91.304688 C 241.46875 91.914062 238.808594 92.222656 235.789062 92.222656 Z M 235.789062 92.222656 " fill-opacity="1" fill-rule="nonzero"/><path fill="#1ed891" d="M 281.566406 55.84375 C 282.023438 57.414062 282.535156 59.1875 283.089844 61.164062 C 283.640625 63.136719 284.234375 65.179688 284.863281 67.289062 C 285.503906 69.398438 286.148438 71.507812 286.792969 73.617188 C 287.449219 75.71875 288.085938 77.671875 288.703125 79.476562 C 289.195312 77.519531 289.695312 75.390625 290.207031 73.101562 C 290.726562 70.800781 291.214844 68.421875 291.664062 65.964844 C 292.125 63.515625 292.574219 61.074219 293.011719 58.648438 C 293.460938 56.214844 293.875 53.863281 294.265625 51.601562 L 303.582031 51.601562 C 302.234375 58.261719 300.6875 65.023438 298.9375 71.890625 C 297.195312 78.746094 295.3125 85.253906 293.28125 91.417969 L 285.066406 91.417969 C 283.730469 87.734375 282.429688 83.875 281.160156 79.835938 C 279.90625 75.796875 278.660156 71.75 277.4375 67.695312 C 276.207031 71.75 274.976562 75.796875 273.753906 79.835938 C 272.527344 83.875 271.246094 87.734375 269.917969 91.417969 L 261.679688 91.417969 C 259.660156 85.253906 257.777344 78.746094 256.027344 71.890625 C 254.285156 65.023438 252.75 58.261719 251.402344 51.601562 L 261.121094 51.601562 C 261.492188 53.863281 261.910156 56.214844 262.375 58.648438 C 262.835938 61.074219 263.320312 63.515625 263.8125 65.964844 C 264.308594 68.421875 264.8125 70.800781 265.339844 73.101562 C 265.859375 75.390625 266.382812 77.519531 266.910156 79.476562 C 267.59375 77.589844 268.269531 75.59375 268.929688 73.484375 C 269.585938 71.375 270.214844 69.277344 270.816406 67.179688 C 271.425781 65.070312 271.992188 63.042969 272.519531 61.097656 C 273.042969 59.136719 273.515625 57.386719 273.933594 55.84375 Z M 281.566406 55.84375 " fill-opacity="1" fill-rule="nonzero"/><path fill="#000000" d="M 320.179688 84.570312 C 321.433594 84.570312 322.472656 84.46875 323.296875 84.257812 C 324.117188 84.050781 324.78125 83.761719 325.273438 83.402344 C 325.777344 83.046875 326.125 82.617188 326.304688 82.125 C 326.496094 81.621094 326.597656 81.058594 326.597656 80.441406 C 326.597656 79.140625 325.980469 78.0625 324.757812 77.210938 C 323.546875 76.347656 321.441406 75.410156 318.449219 74.40625 C 317.148438 73.957031 315.847656 73.433594 314.546875 72.832031 C 313.242188 72.238281 312.066406 71.488281 311.023438 70.589844 C 309.988281 69.691406 309.144531 68.601562 308.484375 67.3125 C 307.839844 66.027344 307.519531 64.460938 307.519531 62.621094 C 307.519531 60.800781 307.863281 59.144531 308.554688 57.664062 C 309.253906 56.179688 310.238281 54.925781 311.492188 53.890625 C 312.761719 52.859375 314.296875 52.070312 316.09375 51.511719 C 317.890625 50.964844 319.914062 50.683594 322.175781 50.683594 C 324.851562 50.683594 327.167969 50.976562 329.132812 51.558594 C 331.089844 52.128906 332.703125 52.757812 333.957031 53.441406 L 331.378906 60.511719 C 330.265625 59.929688 329.03125 59.425781 327.675781 58.988281 C 326.3125 58.539062 324.671875 58.3125 322.757812 58.3125 C 320.605469 58.3125 319.054688 58.617188 318.113281 59.210938 C 317.183594 59.8125 316.722656 60.726562 316.722656 61.949219 C 316.722656 62.667969 316.890625 63.285156 317.238281 63.789062 C 317.582031 64.28125 318.070312 64.730469 318.699219 65.136719 C 319.335938 65.539062 320.070312 65.910156 320.898438 66.234375 C 321.714844 66.550781 322.625 66.878906 323.613281 67.222656 C 325.675781 67.984375 327.472656 68.742188 329 69.488281 C 330.535156 70.242188 331.816406 71.117188 332.835938 72.117188 C 333.851562 73.101562 334.609375 74.269531 335.101562 75.617188 C 335.609375 76.964844 335.867188 78.597656 335.867188 80.507812 C 335.867188 84.222656 334.554688 87.101562 331.9375 89.148438 C 329.335938 91.203125 325.414062 92.222656 320.179688 92.222656 C 318.410156 92.222656 316.816406 92.117188 315.398438 91.910156 C 313.972656 91.695312 312.714844 91.445312 311.628906 91.148438 C 310.550781 90.832031 309.613281 90.507812 308.824219 90.160156 C 308.042969 89.816406 307.386719 89.484375 306.847656 89.171875 L 309.363281 82.058594 C 310.554688 82.703125 312.019531 83.285156 313.761719 83.808594 C 315.511719 84.320312 317.648438 84.570312 320.179688 84.570312 Z M 320.179688 84.570312 " fill-opacity="1" fill-rule="nonzero"/><path fill="#000000" d="M 342.75 91.417969 L 342.75 51.601562 L 369.636719 51.601562 L 369.636719 59.121094 L 351.707031 59.121094 L 351.707031 66.929688 L 367.617188 66.929688 L 367.617188 74.292969 L 351.707031 74.292969 L 351.707031 83.898438 L 370.960938 83.898438 L 370.960938 91.417969 Z M 342.75 91.417969 " fill-opacity="1" fill-rule="nonzero"/></svg>